<svg width="70" height="70" viewBox="0 0 70 70" fill="none" xmlns="http://www.w3.org/2000/svg">
<path d="M24.9505 61.3061C23.8068 61.3061 23.0912 60.0689 23.6616 59.0776L32.6449 43.4639C33.3612 42.2189 32.5707 40.6473 31.1441 40.4801L16.0613 38.7124C14.3519 38.5121 13.6771 36.3896 14.9569 35.2388L44.0436 9.08536C44.3239 8.8333 44.6876 8.69385 45.0646 8.69385V8.69385C46.2452 8.69385 46.9792 9.97633 46.3812 10.9943L37.2309 26.5706C36.498 27.8182 37.2915 29.4071 38.7291 29.5708L53.9172 31.2999C55.6304 31.4949 56.3104 33.6214 55.0283 34.7742L25.9447 60.9249C25.6717 61.1703 25.3176 61.3061 24.9505 61.3061V61.3061Z" fill="#5BC0EB"/>
</svg>
