<svg width="70" height="70" viewBox="0 0 70 70" fill="none" xmlns="http://www.w3.org/2000/svg">
<path d="M35 49.2465C37.782 49.2465 40.3443 48.4791 42.6869 46.9445C44.1365 45.9947 45.3631 44.8528 46.3667 43.5188C47.2452 42.3511 46.2969 40.8333 44.8357 40.8333H25.1643C23.703 40.8333 22.7548 42.3511 23.6333 43.5188C24.6369 44.8528 25.8635 45.9947 27.3131 46.9445C29.6557 48.4791 32.218 49.2465 35 49.2465ZM21.838 29.9376C22.3425 30.4421 23.1597 30.4442 23.6668 29.9424L24.5442 29.0742C25.3264 28.3001 26.587 28.3034 27.3651 29.0816L28.2172 29.9337C28.7231 30.4395 29.5432 30.4395 30.049 29.9337V29.9337C30.5537 29.429 30.555 28.6113 30.0521 28.1049L27.3725 25.4074C26.5923 24.6219 25.3223 24.6198 24.5394 25.4027L21.838 28.1041C21.3317 28.6104 21.3317 29.4313 21.838 29.9376V29.9376ZM39.951 29.9337C40.4568 30.4395 41.2769 30.4395 41.7828 29.9337L42.6349 29.0816C43.413 28.3034 44.6736 28.3001 45.4558 29.0742L46.3332 29.9424C46.8403 30.4442 47.6575 30.4421 48.162 29.9376V29.9376C48.6683 29.4313 48.6683 28.6104 48.162 28.1041L45.4606 25.4027C44.6777 24.6198 43.4077 24.6219 42.6275 25.4074L39.9479 28.1049C39.445 28.6113 39.4463 29.429 39.951 29.9337V29.9337ZM35.0095 61.25C31.3797 61.25 27.9669 60.5612 24.7712 59.1835C21.576 57.8059 18.7965 55.9363 16.4325 53.5748C14.0685 51.2133 12.1973 48.4361 10.8186 45.2433C9.43955 42.051 8.75 38.6398 8.75 35.0095C8.75 31.3797 9.43882 27.9669 10.8165 24.7712C12.1941 21.576 14.0637 18.7965 16.4252 16.4325C18.7867 14.0685 21.5639 12.1973 24.7567 10.8186C27.949 9.43955 31.3602 8.75 34.9905 8.75C38.6203 8.75 42.0331 9.43882 45.2288 10.8165C48.424 12.1941 51.2035 14.0637 53.5675 16.4252C55.9315 18.7867 57.8027 21.5639 59.1814 24.7567C60.5605 27.949 61.25 31.3602 61.25 34.9905C61.25 38.6203 60.5612 42.0331 59.1835 45.2287C57.8059 48.424 55.9363 51.2035 53.5748 53.5675C51.2133 55.9315 48.4361 57.8027 45.2433 59.1814C42.051 60.5605 38.6398 61.25 35.0095 61.25Z" fill="#E487E6"/>
</svg>
