<svg width="72" height="72" viewBox="0 0 72 72" fill="none" xmlns="http://www.w3.org/2000/svg">
<path d="M17.2102 57.4475C15.8828 56.3088 15.7299 54.3096 16.8686 52.9822L33.987 33.0278C34.9916 31.8568 35.155 30.2228 34.8925 28.7024C34.638 27.2284 34.7365 25.7314 35.1879 24.2112C35.8873 21.8558 37.0445 19.7368 38.6597 17.8541C40.8246 15.3305 43.4057 13.5985 46.4029 12.6581C49.4001 11.7176 52.0403 12.2268 54.3236 14.1856C56.6069 16.1443 57.5117 18.6764 57.0381 21.7818C56.5645 24.8871 55.2453 27.7016 53.0803 30.2252C51.4652 32.1079 49.5468 33.574 47.3253 34.6236C45.8914 35.3009 44.4268 35.626 42.9312 35.5987C41.3887 35.5705 39.7985 35.9805 38.7939 37.1515L21.6755 57.1059C20.5368 58.4333 18.5376 58.5862 17.2102 57.4475V57.4475Z" fill="#5BC0EB"/>
</svg>
