<svg width="72" height="72" viewBox="0 0 72 72" fill="none" xmlns="http://www.w3.org/2000/svg">
<path d="M45.5994 61.1202C43.793 61.7809 42 60.3455 42 58.4221V58.2811C42 56.9449 42.8931 55.7905 44.1331 55.2928C47.6598 53.8772 50.5738 51.6213 52.875 48.5251C55.625 44.8251 57 40.6251 57 35.925C57 31.225 55.625 27.025 52.875 23.325C50.5738 20.2288 47.6598 17.9729 44.1331 16.5573C42.8931 16.0596 42 14.9052 42 13.569V13.428C42 11.5046 43.793 10.0692 45.5994 10.7299C50.1837 12.4066 54.0339 15.1925 57.15 19.0875C61.05 23.9625 63 29.575 63 35.925C63 42.275 61.05 47.8876 57.15 52.7626C54.0339 56.6576 50.1837 59.4435 45.5994 61.1202ZM12 45.0001C10.3431 45.0001 9 43.6569 9 42.0001V30C9 28.3432 10.3431 27 12 27H19.7574C20.553 27 21.3161 26.684 21.8787 26.1214L30.8787 17.1214C32.7686 15.2315 36 16.57 36 19.2427V52.7574C36 55.4301 32.7686 56.7686 30.8787 54.8787L21.8787 45.8787C21.3161 45.3161 20.553 45.0001 19.7574 45.0001H12ZM45.8255 45.2871C44.3042 46.8713 42 45.4798 42 43.2834V28.5667C42 26.3703 44.3036 24.9813 45.819 26.5711C46.4546 27.2378 47.0191 27.9808 47.5125 28.8C48.8375 31 49.5 33.4 49.5 36C49.5 38.55 48.8375 40.9126 47.5125 43.0876C47.0207 43.8948 46.4584 44.6279 45.8255 45.2871Z" fill="#362E34"/>
</svg>
