<svg width="70" height="70" viewBox="0 0 70 70" fill="none" xmlns="http://www.w3.org/2000/svg">
<path d="M44.4375 32.625C45.5312 32.625 46.4609 32.2422 47.2266 31.4766C47.9922 30.7109 48.375 29.7812 48.375 28.6875C48.375 27.5937 47.9922 26.6641 47.2266 25.8984C46.4609 25.1328 45.5312 24.75 44.4375 24.75C43.3437 24.75 42.4141 25.1328 41.6484 25.8984C40.8828 26.6641 40.5 27.5937 40.5 28.6875C40.5 29.7812 40.8828 30.7109 41.6484 31.4766C42.4141 32.2422 43.3437 32.625 44.4375 32.625ZM26.0625 32.625C27.1562 32.625 28.0859 32.2422 28.8516 31.4766C29.6172 30.7109 30 29.7812 30 28.6875C30 27.5937 29.6172 26.6641 28.8516 25.8984C28.0859 25.1328 27.1562 24.75 26.0625 24.75C24.9687 24.75 24.0391 25.1328 23.2734 25.8984C22.5078 26.6641 22.125 27.5937 22.125 28.6875C22.125 29.7812 22.5078 30.7109 23.2734 31.4766C24.0391 32.2422 24.9687 32.625 26.0625 32.625ZM35.25 49.6875C38.225 49.6875 40.9266 48.8453 43.3547 47.1609C44.9601 46.0472 46.2739 44.6992 47.296 43.1169C48.0625 41.9304 47.1047 40.5 45.6921 40.5H45.4439C44.7385 40.5 44.0966 40.8802 43.6779 41.4479C42.8087 42.6265 41.7385 43.5902 40.4672 44.3391C38.8703 45.2797 37.1312 45.75 35.25 45.75C33.3687 45.75 31.6297 45.2797 30.0328 44.3391C28.7615 43.5902 27.6913 42.6265 26.8221 41.4479C26.4034 40.8802 25.7615 40.5 25.0561 40.5H24.8079C23.3953 40.5 22.4375 41.9304 23.204 43.1169C24.2261 44.6992 25.5398 46.0472 27.1453 47.1609C29.5734 48.8453 32.275 49.6875 35.25 49.6875ZM35.25 61.5C31.6187 61.5 28.2062 60.8109 25.0125 59.4328C21.8187 58.0547 19.0406 56.1844 16.6781 53.8219C14.3156 51.4594 12.4453 48.6812 11.0672 45.4875C9.68906 42.2937 9 38.8812 9 35.25C9 31.6187 9.68906 28.2062 11.0672 25.0125C12.4453 21.8187 14.3156 19.0406 16.6781 16.6781C19.0406 14.3156 21.8187 12.4453 25.0125 11.0672C28.2062 9.68906 31.6187 9 35.25 9C38.8812 9 42.2937 9.68906 45.4875 11.0672C48.6812 12.4453 51.4594 14.3156 53.8219 16.6781C56.1844 19.0406 58.0547 21.8187 59.4328 25.0125C60.8109 28.2062 61.5 31.6187 61.5 35.25C61.5 38.8812 60.8109 42.2937 59.4328 45.4875C58.0547 48.6812 56.1844 51.4594 53.8219 53.8219C51.4594 56.1844 48.6812 58.0547 45.4875 59.4328C42.2937 60.8109 38.8812 61.5 35.25 61.5Z" fill="#A67D9D"/>
</svg>
